<svg xmlns="http://www.w3.org/2000/svg" fill="none" viewBox="0 0 40 40"><path fill="url(#jquery_40_svg__a)" d="M30.625 0H9.375A9.375 9.375 0 0 0 0 9.375v21.25A9.375 9.375 0 0 0 9.375 40h21.25A9.375 9.375 0 0 0 40 30.625V9.375A9.375 9.375 0 0 0 30.625 0"></path><path fill="#fff" d="M12.38 10.74c-1.56 2.284-1.365 5.256-.177 7.68l.088.172.06.11.034.062q.031.058.059.114l.114.198.065.11.132.21.059.088c.059.095.126.189.191.282l.005.007q.017.023.03.044.087.12.177.237l.066.085.16.201.062.075q.11.133.225.261l.004.005.01.01q.11.125.227.245l.073.075.183.182.074.072q.123.117.25.231l.047.041.226.195.094.077.19.147.1.079.29.21.02.016.206.139.09.06.322.201.09.051.242.139.133.07.173.088.04.02.071.035.275.13.058.029q.16.07.32.135l.078.032.302.113.038.014q.167.06.337.112l.08.025c.119.035.23.078.348.1 7.546 1.405 9.738-4.614 9.738-4.614-1.84 2.442-5.108 3.086-8.204 2.37q-.174-.046-.345-.1l-.087-.03a11 11 0 0 1-.332-.11l-.046-.016a10 10 0 0 1-.293-.11l-.083-.034a9 9 0 0 1-.316-.134l-.064-.028-.267-.127-.076-.038-.207-.107-.138-.074a8 8 0 0 1-.248-.142l-.083-.047a12 12 0 0 1-.323-.2l-.087-.06-.23-.155-.073-.053-.217-.16-.097-.074-.195-.156-.088-.07-.244-.207-.029-.023a11 11 0 0 1-.256-.238l-.072-.07-.185-.184-.072-.074a9 9 0 0 1-.226-.243q-.006-.006-.01-.012a9 9 0 0 1-.23-.266l-.06-.072-.165-.208-.061-.077-.19-.258c-1.72-2.388-2.334-5.681-.963-8.386zm4.844-1.924c-1.128 1.654-1.067 3.867-.186 5.616q.22.441.498.849c.17.246.357.54.581.738q.123.133.254.268.032.034.066.067.127.125.259.245l.01.01q.15.131.305.256l.069.054a7 7 0 0 0 .325.242q.071.05.144.097.033.024.068.046.116.076.234.147l.033.019.207.118q.037.02.073.039l.148.076.022.01q.15.075.302.144l.067.028q.123.053.248.102l.106.04q.114.042.228.08l.102.034c.109.035.216.078.33.097 5.825.983 7.17-3.586 7.17-3.586-1.212 1.778-3.56 2.627-6.066 1.965q-.165-.045-.33-.098l-.099-.029a6 6 0 0 1-.23-.08l-.105-.04c-.083-.03-.166-.067-.248-.102q-.033-.014-.067-.03a6 6 0 0 1-.304-.143l-.152-.08-.088-.045-.193-.111-.046-.03a8 8 0 0 1-.234-.145q-.034-.022-.07-.048l-.151-.102a8 8 0 0 1-.315-.234l-.07-.057c-1.098-.882-1.967-2.087-2.38-3.453-.433-1.418-.34-3.008.413-4.3zm4.073-1.438c-.665.997-.73 2.236-.266 3.337.487 1.168 1.484 2.085 2.648 2.52q.071.027.148.05l.064.022c.068.021.137.047.207.06 3.217.633 4.09-1.68 4.322-2.021-.765 1.12-2.05 1.39-3.625 1a4.6 4.6 0 0 1-.837-.312 4.7 4.7 0 0 1-.794-.493c-1.413-1.09-2.29-3.168-1.369-4.861m-7.602 21.864-.218.772zm6.404-1.77H19.6a.13.13 0 0 0-.122.1l-.71 3.28a.13.13 0 0 1-.121.098h-.707c-.7 0-.618-.483-.473-1.146l.005-.02.085-.452.036-.186.323-1.575a.08.08 0 0 0-.015-.07.08.08 0 0 0-.066-.029H16.81a.13.13 0 0 0-.122.099l-.462 2.19c-.254 1.159-.186 2.264 1.193 2.298l.04.001h2.166a.13.13 0 0 0 .122-.098l.933-4.391c.012-.054-.024-.099-.08-.099zm3.983 3.49c.056 0 .089.044.081.098l-.097.474z"></path><path fill="#fff" d="M21.91 29.654c0-.052.058-.142.114-.142l-.125-.002c-.059.566.011.144.011.144m2.67.61c.056 0 .09.044.081.099l-.112.55zm-1.856 1.155h-.047.052zM8.046 29.666l.155-.688-.178.786-.02.098.043-.197m1.856-2.902H8.806a.13.13 0 0 0-.124.098l-.208.916a.077.077 0 0 0 .079.098h1.105a.13.13 0 0 0 .122-.098l.201-.918c.012-.054-.023-.098-.08-.098zM6.478 33.22l.904.007c-.267 0-.708-.005-.904-.007"></path><path fill="#fff" d="M9.584 28.192H8.479a.13.13 0 0 0-.124.098l-.31 1.375-.043.198-.295 1.403q-.023.099-.053.194s-.207.615-.554.608l-.344-.007a.13.13 0 0 0-.124.097l-.229.963a.077.077 0 0 0 .077.1l.905.007c.867 0 1.324-.48 1.617-1.863l.665-3.071c.012-.054-.025-.099-.08-.099zm15.701 3.171c-.055 0-.089-.044-.08-.098l.832-3.895z"></path><path fill="#fff" d="M25.217 31.314a.4.4 0 0 1 .01-.148l.394-1.849-.416 1.948c-.012.054.024.098.08.098h.1c-.055 0-.161-.022-.168-.049m1.158.027a.5.5 0 0 1-.156.022h.101a.13.13 0 0 0 .121-.099l.02-.098c-.01.054-.059.163-.088.175zm3.514-3.71.046.19c.013.053-.023.097-.078.097m-3.1 1.782.04-.197.16-.742-.18.84zm-.707-2.394-.034.162-.395 1.85.416-1.948z"></path><path fill="#fff" d="m29.935 27.82-.046-.19-.067-.294c-.09-.349-.354-.55-.926-.55l-2.635-.003a.13.13 0 0 0-.121.1l-.04.192-.06.291-.81 3.797a.4.4 0 0 0-.01.147c.008.03.114.05.17.05h.832a.5.5 0 0 0 .156-.023c.03-.012.075-.118.088-.175l.316-1.564.339-1.584a.13.13 0 0 1 .121-.098l2.62-.001c.056 0 .091-.045.079-.099zm3.374-1.711h-1.04a.22.22 0 0 0-.158.084l-1.855 2.717c-.031.046-.067.04-.08-.015l-.136-.598a.13.13 0 0 0-.123-.099h-1.193c-.055 0-.088.044-.073.097l.532 1.872a.45.45 0 0 1 .003.195l-.237.906a.073.073 0 0 0 .04.092.1.1 0 0 0 .036.006h1.182a.14.14 0 0 0 .125-.098l.237-.906a.6.6 0 0 1 .085-.178l3.015-3.997c.033-.044.015-.08-.04-.08l-.316.003zm-9.473 2.344a.12.12 0 0 1-.119.104h-1.512c-.052 0-.079-.036-.07-.08v-.008l.007-.026c.148-.384.439-.636.992-.636.622 0 .743.304.701.646m-.444-1.745c-1.94 0-2.4 1.178-2.658 2.367-.258 1.212-.236 2.345 1.772 2.345h.318l.245-.001 1.278-.008a.13.13 0 0 0 .12-.099l.194-.948a.08.08 0 0 0-.08-.1h-1.805c-.718 0-.932-.19-.853-.75h2.886a.12.12 0 0 0 .106-.075l.007-.025c.429-1.616.306-2.705-1.53-2.705m-9.172 1.739-.027.096-.218.773-.218.772a.14.14 0 0 1-.128.097h-1.153c-.875 0-1.088-.685-.875-1.694.212-1.032.63-1.674 1.491-1.739 1.177-.088 1.412.74 1.128 1.694m.791 1.678s.544-1.32.668-2.082c.168-1.021-.343-2.502-2.317-2.502-1.963 0-2.816 1.413-3.14 2.953-.326 1.548.1 2.906 2.052 2.895l2.979-.011a.14.14 0 0 0 .126-.098l.25-.957a.075.075 0 0 0-.039-.091.1.1 0 0 0-.036-.007l-.48-.003c-.047 0-.074-.03-.069-.07l.006-.023z"></path><path fill="#fff" d="M24.729 29.242a.07.07 0 0 1-.02.047.066.066 0 0 1-.093 0 .066.066 0 1 1 .113-.047"></path><defs><linearGradient id="jquery_40_svg__a" x1="0" x2="40" y1="0" y2="40" gradientUnits="userSpaceOnUse"><stop stop-color="#FF5C00"></stop><stop offset="1" stop-color="#FF0F00"></stop></linearGradient></defs></svg>