<svg xmlns="http://www.w3.org/2000/svg" fill="none" viewBox="0 0 40 40"><path fill="#F0DB4F" d="M30.625 0H9.375A9.375 9.375 0 0 0 0 9.375v21.25A9.375 9.375 0 0 0 9.375 40h21.25A9.375 9.375 0 0 0 40 30.625V9.375A9.375 9.375 0 0 0 30.625 0"></path><path fill="#323330" d="m10.518 33.427 3.06-1.853c.591 1.047 1.129 1.933 2.417 1.933 1.235 0 2.014-.483 2.014-2.362V18.364h3.759v12.834c0 3.893-2.282 5.666-5.612 5.666-3.007 0-4.752-1.558-5.638-3.437m13.292-.403 3.06-1.772c.806 1.316 1.853 2.282 3.706 2.282 1.557 0 2.55-.778 2.55-1.852 0-1.29-1.02-1.746-2.738-2.497l-.94-.403c-2.712-1.155-4.51-2.605-4.51-5.666 0-2.819 2.147-4.967 5.504-4.967 2.39 0 4.108.832 5.343 3.007l-2.927 1.88c-.644-1.155-1.342-1.611-2.416-1.611-1.101 0-1.8.698-1.8 1.61 0 1.128.699 1.585 2.31 2.283l.94.403c3.195 1.37 4.994 2.765 4.994 5.907 0 3.383-2.658 5.236-6.23 5.236-3.49 0-5.745-1.665-6.846-3.84"></path></svg>