<svg xmlns="http://www.w3.org/2000/svg" fill="none" viewBox="0 0 40 40"><path fill="#F34F29" d="M38.98 18.243 21.757 1.02a2.54 2.54 0 0 0-3.593 0l-3.577 3.577 4.537 4.537a3.016 3.016 0 0 1 3.821 3.846l4.372 4.372a3.021 3.021 0 1 1 .985 5.878 3.023 3.023 0 0 1-2.795-4.173l-4.078-4.078v10.732c.296.145.566.338.8.57a3.024 3.024 0 1 1-3.286-.659v-10.83a3.022 3.022 0 0 1-1.64-3.965L12.83 6.354 1.02 18.164a2.54 2.54 0 0 0 0 3.593L18.244 38.98c.992.992 2.6.992 3.593 0l17.144-17.143a2.54 2.54 0 0 0 0-3.594"></path></svg>