<svg xmlns="http://www.w3.org/2000/svg" fill="none" viewBox="0 0 40 40"><path fill="#CD6799" d="M30.625 0H9.375A9.375 9.375 0 0 0 0 9.375v21.25A9.375 9.375 0 0 0 9.375 40h21.25A9.375 9.375 0 0 0 40 30.625V9.375A9.375 9.375 0 0 0 30.625 0"></path><mask id="sass_40_svg__a" width="32" height="24" x="4" y="8" maskUnits="userSpaceOnUse" style="mask-type:luminance"><path fill="#fff" d="M4.375 8.281h31.25v23.423H4.375z"></path></mask><g mask="url(#sass_40_svg__a)"><path fill="#fff" d="M31.267 21.744a6.5 6.5 0 0 0-2.83.656c-.29-.576-.582-1.09-.633-1.466-.057-.44-.126-.707-.057-1.232.068-.525.376-1.272.37-1.33-.005-.056-.068-.324-.695-.33-.628-.006-1.17.12-1.233.285a7 7 0 0 0-.262.93c-.108.57-1.255 2.607-1.91 3.674-.212-.417-.395-.782-.434-1.073-.058-.439-.126-.707-.058-1.232.069-.525.377-1.272.371-1.33-.005-.056-.068-.324-.696-.33s-1.17.12-1.232.285c-.063.166-.131.554-.262.93-.131.377-1.655 3.777-2.054 4.655q-.241.534-.508 1.056.002.001-.022.045-.084.165-.172.325v.006c-.085.154-.177.297-.222.297-.034 0-.097-.411.011-.97.229-1.181.77-3.018.765-3.08 0-.035.102-.354-.354-.52-.445-.165-.605.109-.645.109s-.068.097-.068.097.496-2.065-.947-2.065c-.901 0-2.145.986-2.761 1.876q-1.05.572-2.1 1.147c-.336.188-.684.377-1.01.553-.022-.022-.045-.051-.068-.074-1.745-1.865-4.974-3.183-4.837-5.687.051-.913.365-3.31 6.2-6.218 4.804-2.368 8.626-1.712 9.288-.257.947 2.076-2.048 5.933-7.01 6.492-1.895.21-2.887-.52-3.138-.793-.263-.285-.303-.302-.4-.245-.16.085-.057.342 0 .49.149.388.759 1.073 1.791 1.41.913.296 3.132.461 5.819-.577 3.006-1.164 5.357-4.398 4.666-7.108-.69-2.75-5.253-3.657-9.572-2.122-2.567.913-5.35 2.35-7.353 4.221-2.38 2.225-2.755 4.159-2.601 4.969.553 2.875 4.518 4.746 6.104 6.133l-.217.12c-.793.393-3.817 1.973-4.57 3.645-.855 1.894.137 3.251.793 3.434 2.037.565 4.13-.45 5.254-2.128 1.124-1.677.987-3.856.468-4.855a.1.1 0 0 0-.023-.034l.622-.365q.566-.334 1.146-.645c-.193.531-.336 1.164-.405 2.077-.085 1.072.354 2.464.93 3.012.257.24.56.245.753.245.674 0 .976-.559 1.313-1.22a24 24 0 0 0 .781-1.752s-.462 2.544.793 2.544c.456 0 .918-.593 1.124-.895v.005l.034-.057.074-.12v-.01c.183-.32.593-1.045 1.204-2.248.787-1.552 1.546-3.492 1.546-3.492s.068.474.302 1.261c.137.462.422.97.65 1.46-.182.257-.296.4-.296.4l.006.005c-.149.194-.308.406-.485.61-.622.742-1.364 1.593-1.466 1.838-.12.29-.092.502.136.673.166.125.462.143.765.125.559-.04.953-.176 1.147-.262a3.8 3.8 0 0 0 .986-.52c.61-.45.982-1.094.947-1.944-.017-.468-.17-.936-.359-1.375.057-.08.108-.16.165-.24.965-1.409 1.712-2.955 1.712-2.955s.068.474.302 1.261c.114.4.348.833.554 1.255-.907.736-1.466 1.592-1.666 2.15-.36 1.039-.08 1.506.45 1.615.24.051.582-.063.833-.171.32-.103.696-.28 1.056-.542.61-.45 1.198-1.078 1.163-1.928a3.6 3.6 0 0 0-.262-1.141c.77-.32 1.763-.496 3.03-.348 2.715.32 3.25 2.014 3.148 2.727-.103.713-.673 1.1-.861 1.22s-.251.16-.234.246c.023.125.114.12.274.097.222-.04 1.426-.576 1.477-1.889.086-1.677-1.512-3.508-4.335-3.49m-20.948 7.063c-.901.98-2.156 1.352-2.698 1.038-.582-.337-.354-1.786.753-2.824.673-.633 1.54-1.22 2.116-1.58.131-.08.325-.194.56-.337l.062-.034.137-.086c.405 1.484.017 2.79-.93 3.823m6.56-4.461c-.313.764-.969 2.72-1.368 2.612-.343-.091-.554-1.574-.069-3.04.245-.736.764-1.615 1.067-1.957.49-.548 1.032-.73 1.164-.508.165.291-.6 2.413-.793 2.893m5.414 2.59c-.13.068-.256.114-.313.08-.04-.023.057-.115.057-.115s.679-.73.947-1.06c.154-.195.336-.423.53-.68v.074c0 .873-.844 1.46-1.22 1.7m4.176-.953c-.097-.069-.08-.297.245-1.01.126-.28.423-.747.93-1.198.057.183.097.36.092.525-.006 1.101-.793 1.512-1.267 1.683"></path></g></svg>