<svg xmlns="http://www.w3.org/2000/svg" fill="none" viewBox="0 0 40 40"><path fill="#242938" d="M30.625 0H9.375A9.375 9.375 0 0 0 0 9.375v21.25A9.375 9.375 0 0 0 9.375 40h21.25A9.375 9.375 0 0 0 40 30.625V9.375A9.375 9.375 0 0 0 30.625 0"></path><path fill="#00D8FF" d="M20 22.961a2.915 2.915 0 1 0 0-5.83 2.915 2.915 0 0 0 0 5.83"></path><path stroke="#00D8FF" stroke-width="2" d="M20 14.12c3.914 0 7.55.56 10.291 1.505 3.303 1.137 5.334 2.86 5.334 4.421 0 1.626-2.152 3.457-5.7 4.633-2.68.888-6.21 1.352-9.925 1.352-3.809 0-7.416-.435-10.128-1.362-3.43-1.173-5.497-3.027-5.497-4.623 0-1.548 1.94-3.258 5.196-4.394 2.751-.96 6.477-1.533 10.429-1.533Z"></path><path stroke="#00D8FF" stroke-width="2" d="M14.84 17.1c1.956-3.39 4.259-6.26 6.446-8.163 2.635-2.293 5.143-3.191 6.495-2.412 1.409.813 1.92 3.592 1.166 7.252-.57 2.767-1.931 6.055-3.787 9.274-1.904 3.3-4.082 6.206-6.24 8.092-2.73 2.386-5.369 3.25-6.75 2.453-1.342-.773-1.855-3.308-1.211-6.696.543-2.863 1.908-6.377 3.881-9.8Z"></path><path stroke="#00D8FF" stroke-width="2" d="M14.846 23.06c-1.961-3.387-3.296-6.816-3.853-9.661-.671-3.428-.197-6.05 1.154-6.831 1.408-.815 4.07.13 6.865 2.61 2.112 1.877 4.281 4.698 6.143 7.913 1.908 3.297 3.339 6.637 3.895 9.447.704 3.557.134 6.275-1.247 7.074-1.34.776-3.791-.046-6.405-2.295-2.209-1.9-4.572-4.837-6.552-8.258Z"></path></svg>