<svg xmlns="http://www.w3.org/2000/svg" fill="none" viewBox="0 0 40 40"><path fill="#0071BC" fill-rule="evenodd" d="M5.554 36.001 2.344 0h35.271l-3.213 35.995L19.958 40z" clip-rule="evenodd"></path><path fill="#29ABE2" fill-rule="evenodd" d="m20.009 36.937 11.657-3.207 2.73-30.732H20.01z" clip-rule="evenodd"></path><path fill="#B3B3B3" fill-rule="evenodd" d="m9.691 16.225.387 4.409 9.931-4.41V11.81z" clip-rule="evenodd"></path><path fill="#E6E6E6" fill-rule="evenodd" d="M31.008 7.095 20.01 11.809v4.416l10.62-4.721zM20.01 27.76l-.035.006-4.925-1.323-.322-3.517h-4.433l.619 6.929 9.06 2.508.035-.008z" clip-rule="evenodd"></path><path fill="#fff" fill-rule="evenodd" d="M20.009 16.225v4.409h5.392l-.49 5.764-4.902 1.366v4.594l9.03-2.508 1.19-13.625z" clip-rule="evenodd"></path><path fill="#E6E6E6" fill-rule="evenodd" d="M20.01 16.225H9.69l.387 4.409h9.931zM20.01 11.504v-4.41H8.906l.391 4.41z" clip-rule="evenodd"></path><path fill="#fff" fill-rule="evenodd" d="M20.009 7.095v4.409h10.62l.38-4.41z" clip-rule="evenodd"></path></svg>